<?xml version="1.0" encoding="UTF-8"?>
<svg width="117px" height="60px" viewBox="0 0 117 60" version="1.1" xmlns="http://www.w3.org/2000/svg" xmlns:xlink="http://www.w3.org/1999/xlink">
    <!-- Generator: sketchtool 61.2 (101010) - https://sketch.com -->
    <title>DF897D20-A6FC-468D-940A-94DEF3DCC44F</title>
    <desc>Created with sketchtool.</desc>
    <defs>
        <rect id="path-1" x="0" y="0" width="116.782334" height="60"></rect>
    </defs>
    <g id="Asset-Artboard-Page" stroke="none" stroke-width="1" fill="none" fill-rule="evenodd">
        <g id="DOMUS-LOGO">
            <g id="AGORA">
                <g>
                    <mask id="mask-2" fill="white">
                        <use xlink:href="#path-1"></use>
                    </mask>
                    <g id="Rectangle"></g>
                    <path d="M116.782334,0 L116.782334,60 L0,60 L0,0 L116.782334,0 Z M113.564669,3.21766562 L60,3.21766562 L60,56.7823344 L113.564669,56.7823344 L113.564669,3.21766562 Z M56.7823344,3.21766562 L3.21766562,3.21766562 L3.21766562,56.7823344 L56.7823344,56.7823344 L56.7823344,3.21766562 Z" id="Combined-Shape" fill="#0F2F7F" mask="url(#mask-2)"></path>
                    <rect id="Rectangle" fill="#0F2F7F" mask="url(#mask-2)" x="100" y="14" width="14" height="3"></rect>
                    <rect id="Rectangle" fill="#0F2F7F" mask="url(#mask-2)" x="100" y="14" width="3" height="17"></rect>
                    <rect id="Rectangle" fill="#0F2F7F" mask="url(#mask-2)" x="71" y="28" width="32" height="3"></rect>
                    <rect id="Rectangle" fill="#0F2F7F" mask="url(#mask-2)" x="71" y="28" width="3" height="29"></rect>
                    <rect id="Rectangle" fill="#0F2F7F" mask="url(#mask-2)" x="85" y="2" width="3" height="29"></rect>
                    <rect id="Rectangle" fill="#0F2F7F" mask="url(#mask-2)" x="78" y="9" width="3" height="7"></rect>
                    <rect id="Rectangle" fill="#0F2F7F" mask="url(#mask-2)" x="71" y="9" width="3" height="7"></rect>
                    <rect id="Rectangle" fill="#0F2F7F" mask="url(#mask-2)" x="64" y="9" width="3" height="7"></rect>
                    <rect id="Rectangle" fill="#0F2F7F" mask="url(#mask-2)" x="85" y="37" width="3" height="7"></rect>
                    <rect id="Rectangle" fill="#0F2F7F" mask="url(#mask-2)" x="107" y="23" width="3" height="7"></rect>
                    <rect id="Rectangle" fill="#0F2F7F" mask="url(#mask-2)" x="78" y="37" width="3" height="7"></rect>
                    <rect id="Rectangle" fill="#0F2F7F" mask="url(#mask-2)" x="100" y="48" width="3" height="7"></rect>
                    <rect id="Rectangle" fill="#0F2F7F" mask="url(#mask-2)" x="93" y="48" width="3" height="7"></rect>
                    <path d="M10.9031546,16.5173502 L10.9031546,14.0501577 L11.9337539,14.0501577 C12.7596215,14.0501577 13.4033123,13.8176656 13.8648265,13.3526814 C14.3263407,12.8876972 14.5570978,12.3116719 14.5570978,11.6246057 C14.5570978,10.9305994 14.3263407,10.3580442 13.8648265,9.90694006 C13.4033123,9.45583596 12.7596215,9.23028391 11.9337539,9.23028391 L11.9337539,9.23028391 L9.46656151,9.23028391 L9.46656151,16.5173502 L10.9031546,16.5173502 Z M11.715142,12.8113565 L10.9031546,12.8113565 L10.9031546,10.4794953 L11.715142,10.4794953 C12.1315457,10.4794953 12.4629338,10.5731861 12.709306,10.7605678 C12.9556782,10.9479495 13.0788644,11.2359621 13.0788644,11.6246057 C13.0788644,12.0132492 12.9556782,12.3082019 12.709306,12.5094637 C12.4629338,12.7107256 12.1315457,12.8113565 11.715142,12.8113565 L11.715142,12.8113565 Z M17.2192429,16.6422713 C17.9340694,16.6422713 18.5378549,16.4063091 19.0305994,15.9343849 C19.5233438,15.4555205 19.7697161,14.855205 19.7697161,14.1334385 C19.7697161,13.4116719 19.5233438,12.8130915 19.0305994,12.3376972 C18.5378549,11.8623028 17.9340694,11.6246057 17.2192429,11.6246057 C16.5044164,11.6246057 15.9006309,11.8623028 15.4078864,12.3376972 C14.915142,12.8130915 14.6687697,13.4116719 14.6687697,14.1334385 C14.6687697,14.855205 14.915142,15.4537855 15.4078864,15.9291798 C15.9006309,16.4045741 16.5044164,16.6422713 17.2192429,16.6422713 Z M17.2192429,15.4347003 C16.8652997,15.4347003 16.5772871,15.3115142 16.355205,15.065142 C16.133123,14.8187697 16.022082,14.5082019 16.022082,14.1334385 C16.022082,13.7586751 16.133123,13.4481073 16.355205,13.201735 C16.5772871,12.9553628 16.8652997,12.8321767 17.2192429,12.8321767 C17.5662461,12.8321767 17.8507886,12.9553628 18.0728707,13.201735 C18.2949527,13.4481073 18.4059937,13.7586751 18.4059937,14.1334385 C18.4059937,14.5082019 18.2949527,14.8187697 18.0728707,15.065142 C17.8507886,15.3115142 17.5662461,15.4347003 17.2192429,15.4347003 Z M21.9113565,16.5173502 L21.9113565,14.2375394 C21.9113565,13.8280757 21.9911672,13.533123 22.1507886,13.3526814 C22.3104101,13.1722397 22.5637224,13.0820189 22.9107255,13.0820189 L22.9107255,13.0820189 L23.4832808,13.0820189 L23.4832808,11.7287066 C23.3722397,11.7009464 23.2473186,11.6870662 23.1085173,11.6870662 C22.8100946,11.6870662 22.5533123,11.7599369 22.3381703,11.9056782 C22.1230284,12.0514196 21.966877,12.2526814 21.8697161,12.5094637 L21.8697161,12.5094637 L21.8697161,11.7495268 L20.5580442,11.7495268 L20.5580442,16.5173502 L21.9113565,16.5173502 Z M25.8955836,16.5798107 C26.159306,16.5798107 26.5097792,16.5589905 26.9470032,16.5173502 L26.9470032,16.5173502 L26.9470032,15.3618297 L26.3223975,15.3930599 C26.0239748,15.3930599 25.8747634,15.2785489 25.8747634,15.0495268 L25.8747634,15.0495268 L25.8747634,12.8946372 L26.9053628,12.8946372 L26.9053628,11.7495268 L25.8747634,11.7495268 L25.8747634,9.93817035 L24.5214511,9.93817035 L24.5214511,11.7495268 L23.7719243,11.7495268 L23.7719243,12.8946372 L24.5214511,12.8946372 L24.5214511,15.507571 C24.5214511,15.7365931 24.5596214,15.9257098 24.6359621,16.0749211 C24.7123028,16.2241325 24.8216088,16.3334385 24.9638801,16.4028391 C25.1061514,16.4722397 25.2484227,16.5190852 25.390694,16.5433754 C25.5329653,16.5676656 25.7012618,16.5798107 25.8955836,16.5798107 Z M30.015142,16.6422713 C30.7299684,16.6422713 31.3337539,16.4063091 31.8264984,15.9343849 C32.3192429,15.4555205 32.5656151,14.855205 32.5656151,14.1334385 C32.5656151,13.4116719 32.3192429,12.8130915 31.8264984,12.3376972 C31.3337539,11.8623028 30.7299684,11.6246057 30.015142,11.6246057 C29.3003155,11.6246057 28.69653,11.8623028 28.2037855,12.3376972 C27.711041,12.8130915 27.4646688,13.4116719 27.4646688,14.1334385 C27.4646688,14.855205 27.711041,15.4537855 28.2037855,15.9291798 C28.69653,16.4045741 29.3003155,16.6422713 30.015142,16.6422713 Z M30.015142,15.4347003 C29.6611987,15.4347003 29.3731861,15.3115142 29.1511041,15.065142 C28.9290221,14.8187697 28.8179811,14.5082019 28.8179811,14.1334385 C28.8179811,13.7586751 28.9290221,13.4481073 29.1511041,13.201735 C29.3731861,12.9553628 29.6611987,12.8321767 30.015142,12.8321767 C30.3621451,12.8321767 30.6466877,12.9553628 30.8687697,13.201735 C31.0908517,13.4481073 31.2018927,13.7586751 31.2018927,14.1334385 C31.2018927,14.5082019 31.0908517,14.8187697 30.8687697,15.065142 C30.6466877,15.3115142 30.3621451,15.4347003 30.015142,15.4347003 Z M34.1659306,16.6422713 C34.4157729,16.6422713 34.6291798,16.5537855 34.8061514,16.3768139 C34.983123,16.1998423 35.0716088,15.9864353 35.0716088,15.7365931 C35.0716088,15.4867508 34.983123,15.2733438 34.8061514,15.0963722 C34.6291798,14.9194006 34.4157729,14.8309148 34.1659306,14.8309148 C33.9160883,14.8309148 33.7026814,14.9194006 33.5257098,15.0963722 C33.3487382,15.2733438 33.2602524,15.4867508 33.2602524,15.7365931 C33.2602524,15.9864353 33.3470031,16.2015773 33.5205047,16.3820189 C33.7009464,16.5555205 33.9160883,16.6422713 34.1659306,16.6422713 Z" id="Porto." fill="#0F2F7F" fill-rule="nonzero" mask="url(#mask-2)"></path>
                    <path d="M11.814,27 C13.046,27 13.998,26.6675 14.67,26.0025 C15.342,25.3375 15.678,24.445 15.678,23.325 C15.678,22.205 15.342,21.3125 14.67,20.6475 C13.998,19.9825 13.046,19.65 11.814,19.65 L11.814,19.65 L9.945,19.65 L9.945,27 L11.814,27 Z M11.8035,26.433 L10.596,26.433 L10.596,20.2275 L11.8035,20.2275 C12.7975,20.2275 13.5815,20.4935 14.1555,21.0255 C14.7295,21.5575 15.0165,22.324 15.0165,23.325 C15.0165,24.333 14.7295,25.103 14.1555,25.635 C13.5815,26.167 12.7975,26.433 11.8035,26.433 L11.8035,26.433 Z M18.9015,27.126 C19.5735,27.126 20.14225,26.895 20.60775,26.433 C21.07325,25.971 21.306,25.39 21.306,24.69 C21.306,23.99 21.07325,23.40725 20.60775,22.94175 C20.14225,22.47625 19.5735,22.2435 18.9015,22.2435 C18.2295,22.2435 17.6625,22.47625 17.2005,22.94175 C16.7385,23.40725 16.5075,23.99 16.5075,24.69 C16.5075,25.39 16.7385,25.971 17.2005,26.433 C17.6625,26.895 18.2295,27.126 18.9015,27.126 Z M18.9015,26.5695 C18.3905,26.5695 17.97225,26.391 17.64675,26.034 C17.32125,25.677 17.1585,25.229 17.1585,24.69 C17.1585,24.151 17.32125,23.703 17.64675,23.346 C17.97225,22.989 18.3905,22.8105 18.9015,22.8105 C19.4125,22.8105 19.8325,22.989 20.1615,23.346 C20.4905,23.703 20.655,24.151 20.655,24.69 C20.655,25.229 20.4905,25.677 20.1615,26.034 C19.8325,26.391 19.4125,26.5695 18.9015,26.5695 Z M23.1015,27 L23.1015,23.6295 C23.5705,23.0835 24.064,22.8105 24.582,22.8105 C24.918,22.8105 25.18575,22.9085 25.38525,23.1045 C25.58475,23.3005 25.6845,23.5735 25.6845,23.9235 L25.6845,23.9235 L25.6845,27 L26.325,27 L26.325,24.102 C26.325,23.997 26.318,23.8465 26.304,23.6505 C26.787,23.0905 27.291,22.8105 27.816,22.8105 C28.145,22.8105 28.40925,22.9085 28.60875,23.1045 C28.80825,23.3005 28.908,23.5735 28.908,23.9235 L28.908,23.9235 L28.908,27 L29.5485,27 L29.5485,23.9235 C29.5485,23.4055 29.40675,22.996 29.12325,22.695 C28.83975,22.394 28.432,22.2435 27.9,22.2435 C27.242,22.2435 26.668,22.541 26.178,23.136 C25.94,22.541 25.436,22.2435 24.666,22.2435 C24.05,22.2435 23.525,22.506 23.091,23.031 L23.091,23.031 L23.091,22.3695 L22.461,22.3695 L22.461,27 L23.1015,27 Z M32.9085,27.126 C33.5315,27.126 34.018,26.958 34.368,26.622 C34.718,26.286 34.893,25.8625 34.893,25.3515 L34.893,25.3515 L34.893,22.3695 L34.2525,22.3695 L34.2525,25.2885 C34.2525,25.6945 34.12825,26.00775 33.87975,26.22825 C33.63125,26.44875 33.3075,26.559 32.9085,26.559 C32.5095,26.559 32.18575,26.44875 31.93725,26.22825 C31.68875,26.00775 31.5645,25.6945 31.5645,25.2885 L31.5645,25.2885 L31.5645,22.3695 L30.924,22.3695 L30.924,25.3515 C30.924,25.8625 31.099,26.286 31.449,26.622 C31.799,26.958 32.2855,27.126 32.9085,27.126 Z M37.5285,27.126 C38.0745,27.126 38.4945,26.98775 38.7885,26.71125 C39.0825,26.43475 39.2295,26.125 39.2295,25.782 C39.2295,25.446 39.1315,25.1695 38.9355,24.9525 C38.7395,24.7355 38.4175,24.5395 37.9695,24.3645 L37.9695,24.3645 L37.434,24.165 C36.979,23.99 36.7515,23.7555 36.7515,23.4615 C36.7515,23.2655 36.83725,23.10625 37.00875,22.98375 C37.18025,22.86125 37.3955,22.8 37.6545,22.8 C38.0535,22.8 38.4455,22.954 38.8305,23.262 L38.8305,23.262 L39.177,22.779 C38.764,22.422 38.2635,22.2435 37.6755,22.2435 C37.2135,22.2435 36.83375,22.35725 36.53625,22.58475 C36.23875,22.81225 36.09,23.115 36.09,23.493 C36.09,24.067 36.482,24.494 37.266,24.774 L37.266,24.774 L37.5285,24.8685 C37.8995,25.0015 38.1655,25.131 38.3265,25.257 C38.4875,25.383 38.568,25.5545 38.568,25.7715 C38.568,25.9955 38.47525,26.18275 38.28975,26.33325 C38.10425,26.48375 37.8575,26.559 37.5495,26.559 C37.3395,26.559 37.112,26.5135 36.867,26.4225 C36.622,26.3315 36.412,26.2125 36.237,26.0655 L36.237,26.0655 L35.901,26.5485 C36.111,26.7235 36.3665,26.8635 36.6675,26.9685 C36.9685,27.0735 37.2555,27.126 37.5285,27.126 Z M11.499,37.126 C12.199,37.126 12.7555,36.92825 13.1685,36.53275 C13.5815,36.13725 13.788,35.677 13.788,35.152 C13.788,34.711 13.64975,34.32425 13.37325,33.99175 C13.09675,33.65925 12.668,33.339 12.087,33.031 L12.087,33.031 L11.3205,32.632 C10.6065,32.268 10.2495,31.8305 10.2495,31.3195 C10.2495,30.9345 10.39825,30.6335 10.69575,30.4165 C10.99325,30.1995 11.3485,30.091 11.7615,30.091 C12.0485,30.091 12.34075,30.15575 12.63825,30.28525 C12.93575,30.41475 13.186,30.567 13.389,30.742 L13.389,30.742 L13.746,30.238 C13.151,29.762 12.486,29.524 11.751,29.524 C11.149,29.524 10.63975,29.6885 10.22325,30.0175 C9.80675,30.3465 9.5985,30.7875 9.5985,31.3405 C9.5985,31.7465 9.71925,32.09475 9.96075,32.38525 C10.20225,32.67575 10.5715,32.954 11.0685,33.22 L11.0685,33.22 L11.688,33.5455 C12.206,33.8185 12.57525,34.07225 12.79575,34.30675 C13.01625,34.54125 13.1265,34.837 13.1265,35.194 C13.1265,35.551 12.9795,35.86775 12.6855,36.14425 C12.3915,36.42075 12.01,36.559 11.541,36.559 C10.834,36.559 10.211,36.3 9.672,35.782 L9.672,35.782 L9.3045,36.2755 C9.9345,36.8425 10.666,37.126 11.499,37.126 Z M17.043,37.126 C17.715,37.126 18.28375,36.895 18.74925,36.433 C19.21475,35.971 19.4475,35.39 19.4475,34.69 C19.4475,33.99 19.21475,33.40725 18.74925,32.94175 C18.28375,32.47625 17.715,32.2435 17.043,32.2435 C16.371,32.2435 15.804,32.47625 15.342,32.94175 C14.88,33.40725 14.649,33.99 14.649,34.69 C14.649,35.39 14.88,35.971 15.342,36.433 C15.804,36.895 16.371,37.126 17.043,37.126 Z M17.043,36.5695 C16.532,36.5695 16.11375,36.391 15.78825,36.034 C15.46275,35.677 15.3,35.229 15.3,34.69 C15.3,34.151 15.46275,33.703 15.78825,33.346 C16.11375,32.989 16.532,32.8105 17.043,32.8105 C17.554,32.8105 17.974,32.989 18.303,33.346 C18.632,33.703 18.7965,34.151 18.7965,34.69 C18.7965,35.229 18.632,35.677 18.303,36.034 C17.974,36.391 17.554,36.5695 17.043,36.5695 Z M22.6605,37.126 C23.1015,37.126 23.5075,37.01925 23.8785,36.80575 C24.2495,36.59225 24.533,36.307 24.729,35.95 L24.729,35.95 L24.183,35.635 C24.036,35.922 23.83125,36.1495 23.56875,36.3175 C23.30625,36.4855 23.0035,36.5695 22.6605,36.5695 C22.1495,36.5695 21.73125,36.391 21.40575,36.034 C21.08025,35.677 20.9175,35.229 20.9175,34.69 C20.9175,34.151 21.0785,33.703 21.4005,33.346 C21.7295,32.989 22.1495,32.8105 22.6605,32.8105 C22.9965,32.8105 23.2975,32.89275 23.5635,33.05725 C23.8295,33.22175 24.036,33.4475 24.183,33.7345 L24.183,33.7345 L24.729,33.4195 C24.533,33.0625 24.2495,32.77725 23.8785,32.56375 C23.5075,32.35025 23.1015,32.2435 22.6605,32.2435 C21.9885,32.2435 21.4215,32.47625 20.9595,32.94175 C20.4975,33.40725 20.2665,33.99 20.2665,34.69 C20.2665,35.39 20.4975,35.971 20.9595,36.433 C21.4215,36.895 21.9885,37.126 22.6605,37.126 Z M26.2725,31.246 C26.4265,31.246 26.55775,31.19175 26.66625,31.08325 C26.77475,30.97475 26.829,30.8435 26.829,30.6895 C26.829,30.5355 26.77475,30.40425 26.66625,30.29575 C26.55775,30.18725 26.4265,30.133 26.2725,30.133 C26.1185,30.133 25.98725,30.18725 25.87875,30.29575 C25.77025,30.40425 25.716,30.5355 25.716,30.6895 C25.716,30.8435 25.7685,30.9765 25.8735,31.0885 C25.9855,31.1935 26.1185,31.246 26.2725,31.246 Z M26.64,37 L26.64,32.3695 L25.2645,32.3695 L25.2645,32.905 L25.9995,32.905 L25.9995,37 L26.64,37 Z M29.4225,37.126 C29.7165,37.126 30,37.06475 30.273,36.94225 C30.546,36.81975 30.7455,36.6465 30.8715,36.4225 L30.8715,36.4225 L30.8715,37 L31.512,37 L31.512,33.8185 C31.512,33.3355 31.3545,32.95225 31.0395,32.66875 C30.7245,32.38525 30.294,32.2435 29.748,32.2435 C29.076,32.2435 28.4845,32.4395 27.9735,32.8315 L27.9735,32.8315 L28.278,33.3145 C28.775,32.9785 29.251,32.8105 29.706,32.8105 C30.042,32.8105 30.32025,32.89275 30.54075,33.05725 C30.76125,33.22175 30.8715,33.4685 30.8715,33.7975 L30.8715,33.7975 L30.8715,33.934 C30.8715,34.214 30.721,34.354 30.42,34.354 L30.42,34.354 L29.307,34.354 C28.824,34.354 28.4425,34.47475 28.1625,34.71625 C27.8825,34.95775 27.7425,35.2885 27.7425,35.7085 C27.7425,36.1285 27.8965,36.46975 28.2045,36.73225 C28.5125,36.99475 28.9185,37.126 29.4225,37.126 Z M29.496,36.58 C29.139,36.58 28.8695,36.4925 28.6875,36.3175 C28.5055,36.1425 28.4145,35.9395 28.4145,35.7085 C28.4145,35.4565 28.4985,35.257 28.6665,35.11 C28.8345,34.963 29.083,34.8895 29.412,34.8895 L29.412,34.8895 L30.273,34.8895 C30.574,34.8895 30.7735,34.83 30.8715,34.711 L30.8715,34.711 L30.8715,35.3515 C30.8715,35.7505 30.7385,36.055 30.4725,36.265 C30.2065,36.475 29.881,36.58 29.496,36.58 Z M33.591,37 L33.591,29.65 L32.9505,29.65 L32.9505,37 L33.591,37 Z" id="DomusSocial" fill="#0F2F7F" fill-rule="nonzero" mask="url(#mask-2)"></path>
                </g>
            </g>
        </g>
    </g>
</svg>