<?xml version="1.0" encoding="UTF-8"?>
<svg width="88px" height="44px" viewBox="0 0 88 44" version="1.1" xmlns="http://www.w3.org/2000/svg" xmlns:xlink="http://www.w3.org/1999/xlink">
    <!-- Generator: Sketch 61.2 (89653) - https://sketch.com -->
    <title>logobranco</title>
    <desc>Created with Sketch.</desc>
    <g id="Symbols" stroke="none" stroke-width="1" fill="none" fill-rule="evenodd">
        <g id="MANUAL-header" transform="translate(-40.000000, -8.000000)" fill="#FFFFFF" fill-rule="nonzero">
            <g id="Group-2">
                <g id="logobranco" transform="translate(40.000000, 8.000000)">
                    <path d="M87.0434783,44 L0,44 L0,0 L87.0434783,0 L87.0434783,44 Z M2.32442177,41.7127223 L84.6578875,41.7127223 L84.6578875,2.2872777 L2.32442177,2.2872777 L2.32442177,41.7127223 Z" id="Shape"></path>
                    <g id="Group" transform="translate(12.434783, 13.391304)">
                        <path d="M4.44970162,17.2652174 L0.18286445,17.2652174 L0.18286445,0.0605797101 L6.46121057,0.0605797101 C10.7890026,0.0605797101 12.983376,2.72608696 12.983376,5.9973913 C12.983376,9.26869565 10.7890026,12.0553623 6.46121057,12.0553623 L4.44970162,12.0553623 L4.44970162,17.2652174 Z M4.44970162,3.69536232 L4.44970162,8.29942029 L5.66879795,8.29942029 C7.37553282,8.29942029 8.71653879,7.69362319 8.71653879,5.93681159 C8.71653879,4.18 7.43648764,3.69536232 5.66879795,3.69536232 L4.44970162,3.69536232 L4.44970162,3.69536232 Z" id="Shape"></path>
                        <path d="M12.983376,11.5707246 C12.983376,8.05710145 15.7263427,5.57333333 19.2007673,5.57333333 C22.6751918,5.57333333 25.4181586,8.05710145 25.4181586,11.5707246 C25.4181586,15.0843478 22.6751918,17.6286957 19.2007673,17.6286957 C15.7872975,17.5681159 12.983376,15.0237681 12.983376,11.5707246 Z M16.945439,11.5707246 C16.945439,12.964058 17.8597613,14.0544928 19.2007673,14.0544928 C20.4808184,14.0544928 21.4560955,13.0246377 21.4560955,11.5707246 C21.4560955,10.1168116 20.5417732,9.14753623 19.2007673,9.14753623 C17.8597613,9.08695652 16.945439,10.1168116 16.945439,11.5707246 Z" id="Shape"></path>
                        <path d="M34.0737425,9.08695652 L32.6108269,9.08695652 C30.9040921,9.08695652 30.4774084,10.5408696 30.4774084,11.9947826 L30.4774084,17.2652174 L26.5153453,17.2652174 L26.5153453,5.81565217 L30.3554987,5.81565217 L30.3554987,7.63304348 C30.599318,6.30028986 31.4526854,5.75507246 32.1841432,5.75507246 C32.4889173,5.75507246 34.0737425,5.81565217 34.0737425,5.81565217 L34.0737425,9.08695652 L34.0737425,9.08695652 Z" id="Path"></path>
                        <path d="M40.900682,1.75681159 L40.900682,5.87623188 L43.216965,5.87623188 L43.216965,9.08695652 L40.900682,9.08695652 L40.900682,13.2669565 C40.900682,13.9333333 41.4492754,14.0544928 41.9369139,14.0544928 C42.6683717,14.0544928 43.216965,13.993913 43.216965,13.993913 L43.216965,17.3863768 C43.216965,17.3863768 41.3273657,17.5075362 40.4130435,17.5075362 C38.5234442,17.5075362 36.9386189,16.9623188 36.9386189,14.5997101 L36.9386189,9.08695652 L35.2318841,9.08695652 L35.2318841,5.87623188 L36.9386189,5.87623188 L36.9386189,1.75681159 L40.900682,1.75681159 Z" id="Path"></path>
                        <path d="M44.0703325,11.5707246 C44.0703325,8.05710145 46.8132992,5.57333333 50.2877238,5.57333333 C53.7621483,5.57333333 56.5051151,8.05710145 56.5051151,11.5707246 C56.5051151,15.0843478 53.7621483,17.6286957 50.2877238,17.6286957 C46.8132992,17.5681159 44.0703325,15.0237681 44.0703325,11.5707246 Z M48.0323956,11.5707246 C48.0323956,12.964058 48.9467178,14.0544928 50.2877238,14.0544928 C51.5677749,14.0544928 52.543052,13.0246377 52.543052,11.5707246 C52.543052,10.1168116 51.6287298,9.14753623 50.2877238,9.14753623 C48.9467178,9.08695652 48.0323956,10.1168116 48.0323956,11.5707246 Z" id="Shape"></path>
                        <path d="M59.5528559,12.6611594 C60.9548167,12.6611594 62.0520034,13.7515942 62.0520034,15.1449275 C62.0520034,16.4776812 60.9548167,17.6286957 59.5528559,17.6286957 C58.21185,17.6286957 57.0537084,16.5382609 57.0537084,15.1449275 C57.1146633,13.7515942 58.21185,12.6611594 59.5528559,12.6611594 Z" id="Path"></path>
                    </g>
                </g>
            </g>
        </g>
    </g>
</svg>